<svg width="204" height="81" viewBox="0 0 204 81" fill="none" xmlns="http://www.w3.org/2000/svg">
<path d="M75.7402 16.8292L74.9512 16.0402C73.5604 17.431 71.4546 15.3291 72.8473 13.9363L72.3213 13.4104C70.9305 14.8012 68.8247 12.6993 70.2174 11.3065L69.6915 10.7805C68.3006 12.1714 66.1949 10.0694 67.5876 8.67665L67.0616 8.15067C65.6708 9.54149 63.565 7.43951 64.9577 6.04677L64.1688 5.25781C63.7543 5.67225 63.2623 6.00099 62.7209 6.22528C62.1794 6.44957 61.599 6.56501 61.0129 6.56501C60.4268 6.56501 59.8465 6.44957 59.305 6.22528C58.7635 6.00099 58.2715 5.67225 57.8571 5.25781L34.7143 28.4006C35.5512 29.2375 36.0215 30.3727 36.0215 31.5564C36.0215 32.7401 35.5512 33.8752 34.7143 34.7122C33.8773 35.5492 32.7421 36.0194 31.5584 36.0194C30.3748 36.0194 29.2396 35.5492 28.4026 34.7122L5.25977 57.8551C5.6742 58.2695 6.00294 58.7615 6.22723 59.303C6.45152 59.8444 6.56696 60.4248 6.56696 61.0109C6.56696 61.597 6.45152 62.1773 6.22723 62.7188C6.00294 63.2603 5.6742 63.7523 5.25977 64.1667L6.04872 64.9557C7.43957 63.5649 9.54533 65.6668 8.15262 67.0596L8.6786 67.5856C10.0694 66.1947 12.1752 68.2967 10.7825 69.6895L11.3085 70.2154C12.6993 68.8246 14.8051 70.9266 13.4124 72.3193L13.9383 72.8453C15.3292 71.4545 17.4349 73.5564 16.0422 74.9492L16.8312 75.7381C17.2456 75.3237 17.7376 74.995 18.2791 74.7707C18.8206 74.5464 19.4009 74.4309 19.987 74.4309C20.5731 74.4309 21.1535 74.5464 21.695 74.7707C22.2364 74.995 22.7284 75.3237 23.1429 75.7381L46.2857 52.5953C45.4508 51.7579 44.9824 50.6234 44.9833 49.4409C44.9842 48.2584 45.4543 47.1246 46.2905 46.2884C47.1266 45.4523 48.2604 44.9821 49.4429 44.9812C50.6254 44.9803 51.7599 45.4488 52.5974 46.2837L75.7402 23.1408C75.3257 22.7264 74.997 22.2344 74.7727 21.6929C74.5484 21.1514 74.433 20.5711 74.433 19.985C74.433 19.3989 74.5484 18.8186 74.7727 18.2771C74.997 17.7356 75.3257 17.2436 75.7402 16.8292V16.8292ZM35.5032 37.6051C35.2952 37.397 35.1535 37.1319 35.0961 36.8434C35.0387 36.5548 35.0681 36.2557 35.1807 35.9838C35.2933 35.712 35.484 35.4796 35.7287 35.3162C35.9733 35.1527 36.2609 35.0655 36.5552 35.0655C36.8494 35.0655 37.137 35.1527 37.3817 35.3162C37.6263 35.4796 37.817 35.712 37.9296 35.9838C38.0422 36.2557 38.0717 36.5548 38.0143 36.8434C37.9569 37.1319 37.8152 37.397 37.6071 37.6051C37.3281 37.8841 36.9497 38.0408 36.5552 38.0408C36.1606 38.0408 35.7822 37.8841 35.5032 37.6051V37.6051ZM38.1331 40.2349C37.925 40.0269 37.7834 39.7618 37.726 39.4732C37.6686 39.1847 37.698 38.8855 37.8106 38.6137C37.9232 38.3419 38.1139 38.1095 38.3585 37.9461C38.6032 37.7826 38.8908 37.6953 39.185 37.6953C39.4793 37.6953 39.7669 37.7826 40.0115 37.9461C40.2562 38.1095 40.4469 38.3419 40.5595 38.6137C40.6721 38.8855 40.7015 39.1847 40.6441 39.4732C40.5867 39.7618 40.445 40.0269 40.237 40.2349C40.0988 40.3731 39.9348 40.4827 39.7543 40.5574C39.5739 40.6322 39.3804 40.6707 39.185 40.6707C38.9897 40.6707 38.7962 40.6322 38.6157 40.5574C38.4352 40.4827 38.2712 40.3731 38.1331 40.2349V40.2349ZM40.763 42.8648C40.5549 42.6568 40.4132 42.3917 40.3558 42.1031C40.2984 41.8145 40.3279 41.5154 40.4405 41.2436C40.5531 40.9717 40.7437 40.7394 40.9884 40.5759C41.233 40.4124 41.5207 40.3252 41.8149 40.3252C42.1091 40.3252 42.3968 40.4124 42.6414 40.5759C42.8861 40.7394 43.0767 40.9717 43.1893 41.2436C43.3019 41.5154 43.3314 41.8145 43.274 42.1031C43.2166 42.3917 43.0749 42.6568 42.8669 42.8648C42.7287 43.003 42.5647 43.1125 42.3842 43.1873C42.2037 43.2621 42.0103 43.3006 41.8149 43.3006C41.6195 43.3006 41.4261 43.2621 41.2456 43.1873C41.0651 43.1125 40.9011 43.003 40.763 42.8648V42.8648ZM43.3928 45.4947C43.1848 45.2866 43.0431 45.0216 42.9857 44.733C42.9283 44.4444 42.9577 44.1453 43.0703 43.8734C43.1829 43.6016 43.3736 43.3692 43.6183 43.2058C43.8629 43.0423 44.1505 42.9551 44.4448 42.9551C44.739 42.9551 45.0266 43.0423 45.2713 43.2058C45.5159 43.3692 45.7066 43.6016 45.8192 43.8734C45.9318 44.1453 45.9613 44.4444 45.9039 44.733C45.8465 45.0216 45.7048 45.2866 45.4967 45.4947C45.2177 45.7737 44.8393 45.9304 44.4448 45.9304C44.0502 45.9304 43.6718 45.7737 43.3928 45.4947V45.4947Z" fill="url(#paint0_linear_671_2)"/>
<path d="M32.5998 53.5497C34.4387 50.7195 29.741 46.0124 26.2071 54.1697C27.2252 45.3392 20.8034 47.064 20.9809 50.4364C17.6103 50.2591 15.8828 56.681 24.7141 55.6627C16.5576 59.1963 21.2623 63.8953 24.0941 62.0553C25.6258 65.063 32.0511 63.3482 26.7535 56.2091C33.892 61.5061 35.6092 55.0822 32.5998 53.5497Z" fill="url(#paint1_linear_671_2)"/>
<path d="M61.6467 24.5029C63.4856 21.6726 58.7878 16.9655 55.254 25.1229C56.2721 16.2923 49.8503 18.0171 50.0277 21.3896C46.6572 21.2122 44.9296 27.6341 53.761 26.6158C45.6045 30.1494 50.3091 34.8484 53.141 33.0085C54.6727 36.0162 61.098 34.3013 55.8004 27.1623C62.9388 32.4592 64.656 26.0354 61.6467 24.5029Z" fill="url(#paint2_linear_671_2)"/>
<path d="M135.74 16.8292L134.951 16.0402C133.56 17.431 131.455 15.3291 132.847 13.9363L132.321 13.4104C130.93 14.8012 128.825 12.6993 130.217 11.3065L129.691 10.7805C128.301 12.1714 126.195 10.0694 127.588 8.67665L127.062 8.15067C125.671 9.54149 123.565 7.43951 124.958 6.04677L124.169 5.25781C123.754 5.67225 123.262 6.00099 122.721 6.22528C122.179 6.44957 121.599 6.56501 121.013 6.56501C120.427 6.56501 119.846 6.44957 119.305 6.22528C118.764 6.00099 118.272 5.67225 117.857 5.25781L94.7143 28.4006C95.5512 29.2375 96.0215 30.3727 96.0215 31.5564C96.0215 32.7401 95.5512 33.8752 94.7143 34.7122C93.8773 35.5492 92.7421 36.0194 91.5584 36.0194C90.3748 36.0194 89.2396 35.5492 88.4026 34.7122L65.2598 57.8551C65.6742 58.2695 66.0029 58.7615 66.2272 59.303C66.4515 59.8444 66.567 60.4248 66.567 61.0109C66.567 61.597 66.4515 62.1773 66.2272 62.7188C66.0029 63.2603 65.6742 63.7523 65.2598 64.1667L66.0487 64.9557C67.4396 63.5649 69.5453 65.6668 68.1526 67.0596L68.6786 67.5856C70.0694 66.1947 72.1752 68.2967 70.7825 69.6895L71.3085 70.2154C72.6993 68.8246 74.8051 70.9266 73.4124 72.3193L73.9383 72.8453C75.3292 71.4545 77.4349 73.5564 76.0422 74.9492L76.8312 75.7381C77.2456 75.3237 77.7376 74.995 78.2791 74.7707C78.8206 74.5464 79.4009 74.4309 79.987 74.4309C80.5731 74.4309 81.1535 74.5464 81.695 74.7707C82.2364 74.995 82.7284 75.3237 83.1429 75.7381L106.286 52.5953C105.451 51.7579 104.982 50.6234 104.983 49.4409C104.984 48.2584 105.454 47.1246 106.29 46.2884C107.127 45.4523 108.26 44.9821 109.443 44.9812C110.625 44.9803 111.76 45.4488 112.597 46.2837L135.74 23.1408C135.326 22.7264 134.997 22.2344 134.773 21.6929C134.548 21.1514 134.433 20.5711 134.433 19.985C134.433 19.3989 134.548 18.8186 134.773 18.2771C134.997 17.7356 135.326 17.2436 135.74 16.8292V16.8292ZM95.5032 37.6051C95.2952 37.397 95.1535 37.1319 95.0961 36.8434C95.0387 36.5548 95.0681 36.2557 95.1807 35.9838C95.2933 35.712 95.484 35.4796 95.7287 35.3162C95.9733 35.1527 96.2609 35.0655 96.5552 35.0655C96.8494 35.0655 97.137 35.1527 97.3817 35.3162C97.6263 35.4796 97.817 35.712 97.9296 35.9838C98.0422 36.2557 98.0717 36.5548 98.0143 36.8434C97.9569 37.1319 97.8152 37.397 97.6071 37.6051C97.3281 37.8841 96.9497 38.0408 96.5552 38.0408C96.1606 38.0408 95.7822 37.8841 95.5032 37.6051V37.6051ZM98.1331 40.2349C97.925 40.0269 97.7834 39.7618 97.726 39.4732C97.6686 39.1847 97.698 38.8855 97.8106 38.6137C97.9232 38.3419 98.1139 38.1095 98.3585 37.9461C98.6032 37.7826 98.8908 37.6953 99.185 37.6953C99.4793 37.6953 99.7669 37.7826 100.012 37.9461C100.256 38.1095 100.447 38.3419 100.559 38.6137C100.672 38.8855 100.702 39.1847 100.644 39.4732C100.587 39.7618 100.445 40.0269 100.237 40.2349C100.099 40.3731 99.9348 40.4827 99.7543 40.5574C99.5739 40.6322 99.3804 40.6707 99.185 40.6707C98.9897 40.6707 98.7962 40.6322 98.6157 40.5574C98.4352 40.4827 98.2712 40.3731 98.1331 40.2349V40.2349ZM100.763 42.8648C100.555 42.6568 100.413 42.3917 100.356 42.1031C100.298 41.8145 100.328 41.5154 100.44 41.2436C100.553 40.9717 100.744 40.7394 100.988 40.5759C101.233 40.4124 101.521 40.3252 101.815 40.3252C102.109 40.3252 102.397 40.4124 102.641 40.5759C102.886 40.7394 103.077 40.9717 103.189 41.2436C103.302 41.5154 103.331 41.8145 103.274 42.1031C103.217 42.3917 103.075 42.6568 102.867 42.8648C102.729 43.003 102.565 43.1125 102.384 43.1873C102.204 43.2621 102.01 43.3006 101.815 43.3006C101.62 43.3006 101.426 43.2621 101.246 43.1873C101.065 43.1125 100.901 43.003 100.763 42.8648V42.8648ZM103.393 45.4947C103.185 45.2866 103.043 45.0216 102.986 44.733C102.928 44.4444 102.958 44.1453 103.07 43.8734C103.183 43.6016 103.374 43.3692 103.618 43.2058C103.863 43.0423 104.151 42.9551 104.445 42.9551C104.739 42.9551 105.027 43.0423 105.271 43.2058C105.516 43.3692 105.707 43.6016 105.819 43.8734C105.932 44.1453 105.961 44.4444 105.904 44.733C105.846 45.0216 105.705 45.2866 105.497 45.4947C105.218 45.7737 104.839 45.9304 104.445 45.9304C104.05 45.9304 103.672 45.7737 103.393 45.4947V45.4947Z" fill="url(#paint3_linear_671_2)"/>
<path d="M92.5998 53.5497C94.4387 50.7195 89.741 46.0124 86.2071 54.1697C87.2252 45.3392 80.8034 47.064 80.9809 50.4364C77.6103 50.2591 75.8828 56.681 84.7141 55.6627C76.5576 59.1963 81.2623 63.8953 84.0941 62.0553C85.6258 65.063 92.0511 63.3482 86.7535 56.2091C93.892 61.5061 95.6092 55.0822 92.5998 53.5497Z" fill="url(#paint4_linear_671_2)"/>
<path d="M121.647 24.5029C123.486 21.6726 118.788 16.9655 115.254 25.1229C116.272 16.2923 109.85 18.0171 110.028 21.3896C106.657 21.2122 104.93 27.6341 113.761 26.6158C105.604 30.1494 110.309 34.8484 113.141 33.0085C114.673 36.0162 121.098 34.3013 115.8 27.1623C122.939 32.4592 124.656 26.0354 121.647 24.5029Z" fill="url(#paint5_linear_671_2)"/>
<path d="M198.74 16.8292L197.951 16.0402C196.56 17.431 194.455 15.3291 195.847 13.9363L195.321 13.4104C193.93 14.8012 191.825 12.6993 193.217 11.3065L192.691 10.7805C191.301 12.1714 189.195 10.0694 190.588 8.67665L190.062 8.15067C188.671 9.54149 186.565 7.43951 187.958 6.04677L187.169 5.25781C186.754 5.67225 186.262 6.00099 185.721 6.22528C185.179 6.44957 184.599 6.56501 184.013 6.56501C183.427 6.56501 182.846 6.44957 182.305 6.22528C181.764 6.00099 181.272 5.67225 180.857 5.25781L157.714 28.4006C158.551 29.2375 159.021 30.3727 159.021 31.5564C159.021 32.7401 158.551 33.8752 157.714 34.7122C156.877 35.5492 155.742 36.0194 154.558 36.0194C153.375 36.0194 152.24 35.5492 151.403 34.7122L128.26 57.8551C128.674 58.2695 129.003 58.7615 129.227 59.303C129.452 59.8444 129.567 60.4248 129.567 61.0109C129.567 61.597 129.452 62.1773 129.227 62.7188C129.003 63.2603 128.674 63.7523 128.26 64.1667L129.049 64.9557C130.44 63.5649 132.545 65.6668 131.153 67.0596L131.679 67.5856C133.069 66.1947 135.175 68.2967 133.782 69.6895L134.308 70.2154C135.699 68.8246 137.805 70.9266 136.412 72.3193L136.938 72.8453C138.329 71.4545 140.435 73.5564 139.042 74.9492L139.831 75.7381C140.246 75.3237 140.738 74.995 141.279 74.7707C141.821 74.5464 142.401 74.4309 142.987 74.4309C143.573 74.4309 144.153 74.5464 144.695 74.7707C145.236 74.995 145.728 75.3237 146.143 75.7381L169.286 52.5953C168.451 51.7579 167.982 50.6234 167.983 49.4409C167.984 48.2584 168.454 47.1246 169.29 46.2884C170.127 45.4523 171.26 44.9821 172.443 44.9812C173.625 44.9803 174.76 45.4488 175.597 46.2837L198.74 23.1408C198.326 22.7264 197.997 22.2344 197.773 21.6929C197.548 21.1514 197.433 20.5711 197.433 19.985C197.433 19.3989 197.548 18.8186 197.773 18.2771C197.997 17.7356 198.326 17.2436 198.74 16.8292V16.8292ZM158.503 37.6051C158.295 37.397 158.153 37.1319 158.096 36.8434C158.039 36.5548 158.068 36.2557 158.181 35.9838C158.293 35.712 158.484 35.4796 158.729 35.3162C158.973 35.1527 159.261 35.0655 159.555 35.0655C159.849 35.0655 160.137 35.1527 160.382 35.3162C160.626 35.4796 160.817 35.712 160.93 35.9838C161.042 36.2557 161.072 36.5548 161.014 36.8434C160.957 37.1319 160.815 37.397 160.607 37.6051C160.328 37.8841 159.95 38.0408 159.555 38.0408C159.161 38.0408 158.782 37.8841 158.503 37.6051V37.6051ZM161.133 40.2349C160.925 40.0269 160.783 39.7618 160.726 39.4732C160.669 39.1847 160.698 38.8855 160.811 38.6137C160.923 38.3419 161.114 38.1095 161.359 37.9461C161.603 37.7826 161.891 37.6953 162.185 37.6953C162.479 37.6953 162.767 37.7826 163.012 37.9461C163.256 38.1095 163.447 38.3419 163.559 38.6137C163.672 38.8855 163.702 39.1847 163.644 39.4732C163.587 39.7618 163.445 40.0269 163.237 40.2349C163.099 40.3731 162.935 40.4827 162.754 40.5574C162.574 40.6322 162.38 40.6707 162.185 40.6707C161.99 40.6707 161.796 40.6322 161.616 40.5574C161.435 40.4827 161.271 40.3731 161.133 40.2349V40.2349ZM163.763 42.8648C163.555 42.6568 163.413 42.3917 163.356 42.1031C163.298 41.8145 163.328 41.5154 163.44 41.2436C163.553 40.9717 163.744 40.7394 163.988 40.5759C164.233 40.4124 164.521 40.3252 164.815 40.3252C165.109 40.3252 165.397 40.4124 165.641 40.5759C165.886 40.7394 166.077 40.9717 166.189 41.2436C166.302 41.5154 166.331 41.8145 166.274 42.1031C166.217 42.3917 166.075 42.6568 165.867 42.8648C165.729 43.003 165.565 43.1125 165.384 43.1873C165.204 43.2621 165.01 43.3006 164.815 43.3006C164.62 43.3006 164.426 43.2621 164.246 43.1873C164.065 43.1125 163.901 43.003 163.763 42.8648V42.8648ZM166.393 45.4947C166.185 45.2866 166.043 45.0216 165.986 44.733C165.928 44.4444 165.958 44.1453 166.07 43.8734C166.183 43.6016 166.374 43.3692 166.618 43.2058C166.863 43.0423 167.151 42.9551 167.445 42.9551C167.739 42.9551 168.027 43.0423 168.271 43.2058C168.516 43.3692 168.707 43.6016 168.819 43.8734C168.932 44.1453 168.961 44.4444 168.904 44.733C168.846 45.0216 168.705 45.2866 168.497 45.4947C168.218 45.7737 167.839 45.9304 167.445 45.9304C167.05 45.9304 166.672 45.7737 166.393 45.4947V45.4947Z" fill="url(#paint6_linear_671_2)"/>
<path d="M155.6 53.5497C157.439 50.7195 152.741 46.0124 149.207 54.1697C150.225 45.3392 143.803 47.064 143.981 50.4364C140.61 50.2591 138.883 56.681 147.714 55.6627C139.558 59.1963 144.262 63.8953 147.094 62.0553C148.626 65.063 155.051 63.3482 149.754 56.2091C156.892 61.5061 158.609 55.0822 155.6 53.5497Z" fill="url(#paint7_linear_671_2)"/>
<path d="M184.647 24.5029C186.486 21.6726 181.788 16.9655 178.254 25.1229C179.272 16.2923 172.85 18.0171 173.028 21.3896C169.657 21.2122 167.93 27.6341 176.761 26.6158C168.604 30.1494 173.309 34.8484 176.141 33.0085C177.673 36.0162 184.098 34.3013 178.8 27.1623C185.939 32.4592 187.656 26.0354 184.647 24.5029Z" fill="url(#paint8_linear_671_2)"/>
<defs>
<linearGradient id="paint0_linear_671_2" x1="5.25977" y1="40.4979" x2="75.7402" y2="40.4979" gradientUnits="userSpaceOnUse">
<stop offset="0.0051" stop-color="#4EAD70"/>
<stop offset="1" stop-color="#55BF7F"/>
</linearGradient>
<linearGradient id="paint1_linear_671_2" x1="18.2402" y1="55.5827" x2="34.0152" y2="55.5827" gradientUnits="userSpaceOnUse">
<stop offset="0.0051" stop-color="#B4F993"/>
<stop offset="1" stop-color="#BCFF99"/>
</linearGradient>
<linearGradient id="paint2_linear_671_2" x1="47.2871" y1="26.5358" x2="63.062" y2="26.5358" gradientUnits="userSpaceOnUse">
<stop offset="0.0051" stop-color="#B4F993"/>
<stop offset="1" stop-color="#BCFF99"/>
</linearGradient>
<linearGradient id="paint3_linear_671_2" x1="65.2598" y1="40.4979" x2="135.74" y2="40.4979" gradientUnits="userSpaceOnUse">
<stop offset="0.0051" stop-color="#4EAD70"/>
<stop offset="1" stop-color="#55BF7F"/>
</linearGradient>
<linearGradient id="paint4_linear_671_2" x1="78.2402" y1="55.5827" x2="94.0152" y2="55.5827" gradientUnits="userSpaceOnUse">
<stop offset="0.0051" stop-color="#B4F993"/>
<stop offset="1" stop-color="#BCFF99"/>
</linearGradient>
<linearGradient id="paint5_linear_671_2" x1="107.287" y1="26.5358" x2="123.062" y2="26.5358" gradientUnits="userSpaceOnUse">
<stop offset="0.0051" stop-color="#B4F993"/>
<stop offset="1" stop-color="#BCFF99"/>
</linearGradient>
<linearGradient id="paint6_linear_671_2" x1="128.26" y1="40.4979" x2="198.74" y2="40.4979" gradientUnits="userSpaceOnUse">
<stop offset="0.0051" stop-color="#4EAD70"/>
<stop offset="1" stop-color="#55BF7F"/>
</linearGradient>
<linearGradient id="paint7_linear_671_2" x1="141.24" y1="55.5827" x2="157.015" y2="55.5827" gradientUnits="userSpaceOnUse">
<stop offset="0.0051" stop-color="#B4F993"/>
<stop offset="1" stop-color="#BCFF99"/>
</linearGradient>
<linearGradient id="paint8_linear_671_2" x1="170.287" y1="26.5358" x2="186.062" y2="26.5358" gradientUnits="userSpaceOnUse">
<stop offset="0.0051" stop-color="#B4F993"/>
<stop offset="1" stop-color="#BCFF99"/>
</linearGradient>
</defs>
</svg>
