<svg width="123" height="123" viewBox="0 0 123 123" fill="none" xmlns="http://www.w3.org/2000/svg">
<path d="M27.675 93.7875L20.5 51.25L46.125 61.5L61.5 30.75L76.875 61.5L102.5 51.25L95.325 93.7875C94.3 98.9125 90.2 102.5 85.075 102.5H37.4125C32.8 102.5 28.1875 98.9125 27.675 93.7875Z" fill="#4C82D4"/>
<path d="M61.5 41C67.1609 41 71.75 36.4109 71.75 30.75C71.75 25.0891 67.1609 20.5 61.5 20.5C55.8391 20.5 51.25 25.0891 51.25 30.75C51.25 36.4109 55.8391 41 61.5 41Z" fill="#4C82D4"/>
<path d="M102.5 61.5C108.161 61.5 112.75 56.9109 112.75 51.25C112.75 45.5891 108.161 41 102.5 41C96.8391 41 92.25 45.5891 92.25 51.25C92.25 56.9109 96.8391 61.5 102.5 61.5Z" fill="#4C82D4"/>
<path d="M20.5 61.5C26.1609 61.5 30.75 56.9109 30.75 51.25C30.75 45.5891 26.1609 41 20.5 41C14.8391 41 10.25 45.5891 10.25 51.25C10.25 56.9109 14.8391 61.5 20.5 61.5Z" fill="#4C82D4"/>
</svg>
