<svg width="325" height="288" viewBox="0 0 325 288" fill="none" xmlns="http://www.w3.org/2000/svg">
<path d="M100.433 111.485C103.504 111.485 105.994 108.995 105.994 105.923C105.994 102.852 103.504 100.362 100.433 100.362C97.3611 100.362 94.8711 102.852 94.8711 105.923C94.8711 108.995 97.3611 111.485 100.433 111.485Z" stroke="#D44C4C" stroke-width="2" stroke-linecap="round" stroke-linejoin="round"/>
<path d="M221.546 103.943C223.188 103.943 224.519 102.612 224.519 100.97C224.519 99.3281 223.188 97.9971 221.546 97.9971C219.904 97.9971 218.573 99.3281 218.573 100.97C218.573 102.612 219.904 103.943 221.546 103.943Z" fill="#D44C4C"/>
<path d="M96.409 195.71C98.0509 195.71 99.382 194.379 99.382 192.737C99.382 191.095 98.0509 189.764 96.409 189.764C94.7671 189.764 93.436 191.095 93.436 192.737C93.436 194.379 94.7671 195.71 96.409 195.71Z" fill="#D44C4C"/>
<path d="M181.201 155.936C188.017 153.066 193.789 148.175 197.739 141.921C201.688 135.668 203.624 128.354 203.286 120.966C202.948 113.578 200.352 106.471 195.848 100.604C191.345 94.7378 185.15 90.3938 178.1 88.1582C171.05 85.9227 163.484 85.9034 156.423 88.1027C149.362 90.302 143.145 94.6143 138.611 100.458C134.077 106.301 131.445 113.394 131.069 120.781C130.693 128.167 132.592 135.491 136.509 141.764" stroke="#D44C4C" stroke-width="2" stroke-linecap="round" stroke-linejoin="round"/>
<path d="M172.734 114.266H164.392V130.951" stroke="#D44C4C" stroke-width="2" stroke-linecap="round" stroke-linejoin="round"/>
<path d="M172.734 122.608H164.392" stroke="#D44C4C" stroke-width="2" stroke-linecap="round" stroke-linejoin="round"/>
<path d="M156.049 125.389L144.926 114.266V130.951" stroke="#D44C4C" stroke-width="2" stroke-linecap="round" stroke-linejoin="round"/>
<path d="M156.049 114.266V130.951" stroke="#D44C4C" stroke-width="2" stroke-linecap="round" stroke-linejoin="round"/>
<path d="M181.077 114.266H192.2" stroke="#D44C4C" stroke-width="2" stroke-linecap="round" stroke-linejoin="round"/>
<path d="M186.638 130.951V114.266" stroke="#D44C4C" stroke-width="2" stroke-linecap="round" stroke-linejoin="round"/>
<path d="M236.693 222.717L206.104 214.375L164.392 222.717L115.353 214.975C114.295 214.807 113.331 214.268 112.635 213.453C111.939 212.639 111.556 211.603 111.556 210.531V210.531C111.556 209.338 112.03 208.194 112.874 207.35C113.717 206.506 114.862 206.033 116.055 206.033H144.926V202.825C144.926 199.988 146.053 197.267 148.059 195.261C150.065 193.255 152.786 192.128 155.622 192.128H172.734C172.734 192.128 178.296 178.224 197.762 181.005C217.227 183.786 214.446 189.348 236.693 189.348" stroke="#D44C4C" stroke-width="2" stroke-linecap="round" stroke-linejoin="round"/>
<path d="M142.145 206.033H175.515L189.419 200.471" stroke="#D44C4C" stroke-width="2" stroke-linecap="round" stroke-linejoin="round"/>
<path d="M69.8438 172.663L100.433 164.32L142.145 172.663L191.184 164.92C192.242 164.753 193.206 164.213 193.902 163.399C194.598 162.584 194.981 161.548 194.981 160.476V160.476C194.981 159.283 194.507 158.139 193.663 157.295C192.819 156.452 191.675 155.978 190.482 155.978H161.611V152.77C161.611 149.933 160.484 147.213 158.478 145.207C156.472 143.201 153.751 142.074 150.914 142.074H133.803C133.803 142.074 128.241 128.17 108.775 130.95C89.3095 133.731 92.0903 139.293 69.8438 139.293" stroke="#D44C4C" stroke-width="2" stroke-linecap="round" stroke-linejoin="round"/>
<path d="M164.392 155.978H131.022L117.118 150.416" stroke="#D44C4C" stroke-width="2" stroke-linecap="round" stroke-linejoin="round"/>
<path d="M222.789 144.854V155.978" stroke="#D44C4C" stroke-width="2" stroke-linecap="round" stroke-linejoin="round"/>
<path d="M217.227 150.416H228.35" stroke="#D44C4C" stroke-width="2" stroke-linecap="round" stroke-linejoin="round"/>
<path d="M15.0705 178.697C11.8936 143.161 27.2877 103.871 52.5188 72.6175C77.7517 41.3615 112.61 18.4049 148.058 15.2358C183.709 12.0486 222.746 21.2984 253.644 40.2717C284.538 59.2421 307.139 87.8227 310.306 123.25C313.477 158.719 296.594 194.601 269.843 222.481C243.096 250.356 206.67 270.029 171.12 273.207C135.371 276.403 97.8657 270.478 68.5529 254.877C39.2785 239.297 18.2372 214.118 15.0705 178.697Z" stroke="#D44C4C" stroke-width="3"/>
</svg>
