<svg width="70" height="88" viewBox="0 0 70 88" fill="none" xmlns="http://www.w3.org/2000/svg">
<g clip-path="url(#clip0_568_113)">
<path d="M68.631 58.199C64.414 65.02 50.955 70.007 35 70.007C19.047 70.007 5.586 65.02 1.371 58.199C0.477 56.756 0 57.528 0 58.245C0 58.96 0 68.255 0 68.255C0 77.948 15.67 88 35 88C54.332 88 70 77.948 70 68.255C70 68.255 70 58.96 70 58.245C70 57.528 69.523 56.756 68.631 58.199ZM68.688 32.624C64.54 38.654 51.028 43.074 35 43.074C18.975 43.074 5.461 38.654 1.312 32.624C0.457 31.381 0 32.056 0 32.619C0 33.183 0 44.398 0 44.398C0 53.211 15.67 60.353 35 60.353C54.332 60.353 70 53.211 70 44.398C70 44.398 70 33.183 70 32.619C70 32.056 69.543 31.381 68.688 32.624ZM35 0C15.67 0 0 5.893 0 13.162V19.46C0 27.17 15.67 33.42 35 33.42C54.332 33.42 70 27.17 70 19.46V13.162C70 5.893 54.332 0 35 0Z" fill="#4C82D4"/>
</g>
<defs>
<clipPath id="clip0_568_113">
<rect width="70" height="88" fill="white"/>
</clipPath>
</defs>
</svg>
