<svg width="187" height="187" viewBox="0 0 187 187" fill="none" xmlns="http://www.w3.org/2000/svg">
<path d="M37.9844 43.8281C41.2118 43.8281 43.8281 41.2118 43.8281 37.9844C43.8281 34.757 41.2118 32.1406 37.9844 32.1406C34.757 32.1406 32.1406 34.757 32.1406 37.9844C32.1406 41.2118 34.757 43.8281 37.9844 43.8281Z" stroke="#4C82D4" stroke-width="2" stroke-linecap="round" stroke-linejoin="round"/>
<path d="M165.241 35.9038C166.966 35.9038 168.365 34.5052 168.365 32.78C168.365 31.0548 166.966 29.6562 165.241 29.6562C163.516 29.6562 162.117 31.0548 162.117 32.78C162.117 34.5052 163.516 35.9038 165.241 35.9038Z" fill="#4C82D4"/>
<path d="M33.7566 132.326C35.4818 132.326 36.8804 130.927 36.8804 129.202C36.8804 127.477 35.4818 126.078 33.7566 126.078C32.0314 126.078 30.6328 127.477 30.6328 129.202C30.6328 130.927 32.0314 132.326 33.7566 132.326Z" fill="#4C82D4"/>
<path d="M122.849 90.5315C130.011 87.516 136.076 82.3764 140.225 75.8059C144.375 69.2355 146.409 61.5504 146.054 53.7875C145.699 46.0245 142.971 38.5573 138.239 32.3932C133.507 26.2291 126.998 21.6647 119.591 19.3158C112.183 16.9669 104.233 16.9465 96.8139 19.2574C89.3944 21.5683 82.8622 26.0993 78.0985 32.2391C73.3349 38.3788 70.569 45.832 70.1741 53.593C69.7792 61.354 71.7741 69.0494 75.8899 75.641" stroke="#4C82D4" stroke-width="2" stroke-linecap="round" stroke-linejoin="round"/>
<path d="M113.953 46.75H105.188V64.2812" stroke="#4C82D4" stroke-width="2" stroke-linecap="round" stroke-linejoin="round"/>
<path d="M113.953 55.5156H105.188" stroke="#4C82D4" stroke-width="2" stroke-linecap="round" stroke-linejoin="round"/>
<path d="M96.4219 58.4375L84.7344 46.75V64.2812" stroke="#4C82D4" stroke-width="2" stroke-linecap="round" stroke-linejoin="round"/>
<path d="M96.4219 46.75V64.2812" stroke="#4C82D4" stroke-width="2" stroke-linecap="round" stroke-linejoin="round"/>
<path d="M122.719 46.75H134.406" stroke="#4C82D4" stroke-width="2" stroke-linecap="round" stroke-linejoin="round"/>
<path d="M128.562 64.2812V46.75" stroke="#4C82D4" stroke-width="2" stroke-linecap="round" stroke-linejoin="round"/>
<path d="M181.156 160.699L149.016 151.933L105.188 160.699L53.6614 152.563C52.5493 152.388 51.5365 151.821 50.8051 150.965C50.0737 150.109 49.6719 149.02 49.6719 147.894V147.894C49.6719 146.641 50.1699 145.438 51.0563 144.552C51.9427 143.666 53.145 143.168 54.3986 143.168H84.7344V139.797C84.7344 136.816 85.9185 133.958 88.0262 131.85C90.1339 129.742 92.9926 128.558 95.9734 128.558H113.953C113.953 128.558 119.797 113.949 140.25 116.871C160.703 119.793 157.781 125.636 181.156 125.636" stroke="#4C82D4" stroke-width="2" stroke-linecap="round" stroke-linejoin="round"/>
<path d="M81.8125 143.172H116.875L131.484 137.328" stroke="#4C82D4" stroke-width="2" stroke-linecap="round" stroke-linejoin="round"/>
<path d="M5.84375 108.105L37.9844 99.3395L81.8125 108.105L133.339 99.9694C134.451 99.7939 135.464 99.2271 136.195 98.3712C136.926 97.5153 137.328 96.4264 137.328 95.3006V95.3006C137.328 94.047 136.83 92.8447 135.944 91.9583C135.057 91.0719 133.855 90.5739 132.601 90.5739H102.266V87.2035C102.266 84.2227 101.082 81.364 98.9738 79.2563C96.8661 77.1486 94.0074 75.9645 91.0266 75.9645H73.0469C73.0469 75.9645 67.2031 61.3551 46.75 64.277C26.2969 67.1989 29.2188 73.0426 5.84375 73.0426" stroke="#4C82D4" stroke-width="2" stroke-linecap="round" stroke-linejoin="round"/>
<path d="M105.188 90.5781H70.125L55.5156 84.7344" stroke="#4C82D4" stroke-width="2" stroke-linecap="round" stroke-linejoin="round"/>
<path d="M166.547 78.8906V90.5781" stroke="#4C82D4" stroke-width="2" stroke-linecap="round" stroke-linejoin="round"/>
<path d="M160.703 84.7344H172.391" stroke="#4C82D4" stroke-width="2" stroke-linecap="round" stroke-linejoin="round"/>
</svg>
