<svg width="145" height="145" viewBox="0 0 145 145" fill="none" xmlns="http://www.w3.org/2000/svg">
<path d="M67.9688 65.7031C84.2353 65.7031 97.4219 52.5165 97.4219 36.25C97.4219 19.9835 84.2353 6.79688 67.9688 6.79688C51.7022 6.79688 38.5156 19.9835 38.5156 36.25C38.5156 52.5165 51.7022 65.7031 67.9688 65.7031Z" stroke="#4C82D4" stroke-width="2" stroke-linecap="round" stroke-linejoin="round"/>
<path d="M72.5 29.4531H65.7031V43.0469" stroke="#4C82D4" stroke-width="2" stroke-linecap="round" stroke-linejoin="round"/>
<path d="M72.5 36.25H65.7031" stroke="#4C82D4" stroke-width="2" stroke-linecap="round" stroke-linejoin="round"/>
<path d="M58.9062 38.5156L49.8438 29.4531V43.0469" stroke="#4C82D4" stroke-width="2" stroke-linecap="round" stroke-linejoin="round"/>
<path d="M58.9062 29.4531V43.0469" stroke="#4C82D4" stroke-width="2" stroke-linecap="round" stroke-linejoin="round"/>
<path d="M79.2969 29.4531H88.3594" stroke="#4C82D4" stroke-width="2" stroke-linecap="round" stroke-linejoin="round"/>
<path d="M83.8281 43.0469V29.4531" stroke="#4C82D4" stroke-width="2" stroke-linecap="round" stroke-linejoin="round"/>
<path d="M105.547 114.609L111.955 121.017" stroke="#4C82D4" stroke-width="2" stroke-linecap="round" stroke-linejoin="round"/>
<path d="M111.955 114.609L105.547 121.017" stroke="#4C82D4" stroke-width="2" stroke-linecap="round" stroke-linejoin="round"/>
<path d="M131.416 125.024C132.754 125.024 133.839 123.94 133.839 122.602C133.839 121.264 132.754 120.18 131.416 120.18C130.079 120.18 128.994 121.264 128.994 122.602C128.994 123.94 130.079 125.024 131.416 125.024Z" fill="#4C82D4"/>
<path d="M22.6562 115.547C25.1588 115.547 27.1875 113.518 27.1875 111.016C27.1875 108.513 25.1588 106.484 22.6562 106.484C20.1537 106.484 18.125 108.513 18.125 111.016C18.125 113.518 20.1537 115.547 22.6562 115.547Z" stroke="#4C82D4" stroke-width="2" stroke-linecap="round" stroke-linejoin="round"/>
<path d="M64.1702 74.7656H81.5625C81.5625 77.1691 80.6077 79.4742 78.9082 81.1738C77.2086 82.8733 74.9035 83.8281 72.5 83.8281H58.9062V80.0296C58.9063 78.6335 59.4608 77.2946 60.448 76.3074C61.4352 75.3202 62.7741 74.7656 64.1702 74.7656V74.7656Z" stroke="#4C82D4" stroke-width="2" stroke-linecap="round" stroke-linejoin="round"/>
<path d="M58.9062 83.8281H77.0312V104.219H68.3965C65.8795 104.219 63.4656 103.219 61.6859 101.439C59.9061 99.6594 58.9063 97.2455 58.9062 94.7285V83.8281Z" stroke="#4C82D4" stroke-width="2" stroke-linecap="round" stroke-linejoin="round"/>
<path d="M81.5625 138.203L83.8281 113.281L100.405 98.5669C100.892 98.1415 101.281 97.6171 101.548 97.0289C101.815 96.4407 101.953 95.8022 101.953 95.1562V67.9688C101.953 66.767 101.476 65.6144 100.626 64.7647C99.7762 63.9149 98.6236 63.4375 97.4219 63.4375C96.2201 63.4375 95.0676 63.9149 94.2178 64.7647C93.368 65.6144 92.8906 66.767 92.8906 67.9688V93.0997L80.1832 104.219H58.0199L45.3125 93.0997V67.9688C45.3125 66.767 44.8351 65.6144 43.9853 64.7647C43.1356 63.9149 41.983 63.4375 40.7812 63.4375C39.5795 63.4375 38.4269 63.9149 37.5772 64.7647C36.7274 65.6144 36.25 66.767 36.25 67.9688V95.1562C36.25 95.8022 36.3881 96.4407 36.6551 97.0289C36.922 97.6171 37.3115 98.1415 37.7976 98.5669L54.375 113.281L56.6406 138.203" stroke="#4C82D4" stroke-width="2" stroke-linecap="round" stroke-linejoin="round"/>
<path d="M106.484 36.25H115.547" stroke="#4C82D4" stroke-width="2" stroke-linecap="round" stroke-linejoin="round"/>
<path d="M106.484 29.4531L109.883 26.0547" stroke="#4C82D4" stroke-width="2" stroke-linecap="round" stroke-linejoin="round"/>
<path d="M106.484 43.0469L109.883 46.4453" stroke="#4C82D4" stroke-width="2" stroke-linecap="round" stroke-linejoin="round"/>
<path d="M29.4531 36.25H20.3906" stroke="#4C82D4" stroke-width="2" stroke-linecap="round" stroke-linejoin="round"/>
<path d="M29.4531 29.4531L26.0547 26.0547" stroke="#4C82D4" stroke-width="2" stroke-linecap="round" stroke-linejoin="round"/>
<path d="M29.4531 43.0469L26.0547 46.4453" stroke="#4C82D4" stroke-width="2" stroke-linecap="round" stroke-linejoin="round"/>
<path d="M92.8906 72.5H101.953" stroke="#4C82D4" stroke-width="2" stroke-linejoin="round"/>
<path d="M36.25 72.5H45.3125" stroke="#4C82D4" stroke-width="2" stroke-linejoin="round"/>
</svg>
