<svg width="92" height="92" viewBox="0 0 92 92" fill="none" xmlns="http://www.w3.org/2000/svg">
<path d="M45.9991 40.2533C31.7373 40.2533 11.6608 62.301 11.6608 76.2268C11.5027 82.4979 16.3075 86.2533 24.4007 86.2533C33.1694 86.2533 38.9733 81.7432 45.9991 81.7432C53.0968 81.7432 58.9186 86.2533 67.5975 86.2533C75.5218 86.2533 80.4883 82.5015 80.4883 76.2358C80.3374 62.319 60.2663 40.2533 45.9991 40.2533ZM19.5491 37.9893C17.6857 31.7685 11.9124 27.7255 6.67989 28.9833C1.44739 30.2412 -1.27739 36.3002 0.586684 42.5174C2.45004 48.7526 8.2234 52.7955 13.4559 51.5377C18.6884 50.2799 21.3999 44.2065 19.5491 37.9893ZM34.7686 34.2518C40.3156 32.7918 43.1007 25.4291 40.9679 17.4744C38.835 9.51959 32.6124 4.69857 27.0439 5.99771C21.4969 7.45767 18.7118 14.8204 20.8447 22.7751C22.9811 30.5682 29.1983 35.7252 34.7686 34.2518ZM85.3327 28.9869C80.1002 27.8908 74.3268 31.7721 72.4635 37.9929C70.6001 44.2155 73.317 50.2781 78.5495 51.5359C83.782 52.632 89.532 48.7508 91.4187 42.53C93.2749 36.3002 90.3999 30.2447 85.3327 28.9869ZM57.2296 34.2518C62.6382 35.7117 69.0207 30.5682 71.1536 22.7751C73.2864 14.9821 70.5022 7.45677 64.9543 5.99771C59.5457 4.53775 53.1632 9.68131 51.0304 17.4744C48.8921 25.2674 51.6772 32.7963 57.2296 34.2518Z" fill="#4C82D4"/>
</svg>
