<svg width="326" height="288" viewBox="0 0 326 288" fill="none" xmlns="http://www.w3.org/2000/svg">
<path d="M164.688 147.531C180.169 147.531 192.719 134.981 192.719 119.5C192.719 104.019 180.169 91.4688 164.688 91.4688C149.206 91.4688 136.656 104.019 136.656 119.5C136.656 134.981 149.206 147.531 164.688 147.531Z" stroke="#D44C4C" stroke-width="2" stroke-linecap="round" stroke-linejoin="round"/>
<path d="M169 113.031H162.531V125.969" stroke="#D44C4C" stroke-width="2" stroke-linecap="round" stroke-linejoin="round"/>
<path d="M169 119.5H162.531" stroke="#D44C4C" stroke-width="2" stroke-linecap="round" stroke-linejoin="round"/>
<path d="M156.062 121.656L147.438 113.031V125.969" stroke="#D44C4C" stroke-width="2" stroke-linecap="round" stroke-linejoin="round"/>
<path d="M156.062 113.031V125.969" stroke="#D44C4C" stroke-width="2" stroke-linecap="round" stroke-linejoin="round"/>
<path d="M175.469 113.031H184.094" stroke="#D44C4C" stroke-width="2" stroke-linecap="round" stroke-linejoin="round"/>
<path d="M179.781 125.969V113.031" stroke="#D44C4C" stroke-width="2" stroke-linecap="round" stroke-linejoin="round"/>
<path d="M200.451 194.076L206.549 200.174" stroke="#D44C4C" stroke-width="2" stroke-linecap="round" stroke-linejoin="round"/>
<path d="M206.549 194.076L200.451 200.174" stroke="#D44C4C" stroke-width="2" stroke-linecap="round" stroke-linejoin="round"/>
<path d="M225.072 203.985C226.345 203.985 227.377 202.953 227.377 201.68C227.377 200.407 226.345 199.375 225.072 199.375C223.799 199.375 222.767 200.407 222.767 201.68C222.767 202.953 223.799 203.985 225.072 203.985Z" fill="#D44C4C"/>
<path d="M121.562 194.969C123.944 194.969 125.875 193.038 125.875 190.656C125.875 188.275 123.944 186.344 121.562 186.344C119.181 186.344 117.25 188.275 117.25 190.656C117.25 193.038 119.181 194.969 121.562 194.969Z" stroke="#D44C4C" stroke-width="2" stroke-linecap="round" stroke-linejoin="round"/>
<path d="M161.072 156.156H177.625C177.625 158.444 176.716 160.638 175.099 162.255C173.481 163.873 171.287 164.781 169 164.781H156.062V161.166C156.063 159.837 156.59 158.563 157.53 157.624C158.469 156.684 159.744 156.156 161.072 156.156V156.156Z" stroke="#D44C4C" stroke-width="2" stroke-linecap="round" stroke-linejoin="round"/>
<path d="M156.062 164.781H173.312V184.188H165.095C162.699 184.188 160.402 183.236 158.708 181.542C157.014 179.848 156.062 177.551 156.062 175.155V164.781Z" stroke="#D44C4C" stroke-width="2" stroke-linecap="round" stroke-linejoin="round"/>
<path d="M177.625 216.531L179.781 192.812L195.558 178.809C196.021 178.404 196.392 177.905 196.646 177.345C196.9 176.785 197.031 176.177 197.031 175.562V149.688C197.031 148.544 196.577 147.447 195.768 146.638C194.959 145.829 193.862 145.375 192.719 145.375C191.575 145.375 190.478 145.829 189.669 146.638C188.861 147.447 188.406 148.544 188.406 149.688V173.605L176.312 184.188H155.219L143.125 173.605V149.688C143.125 148.544 142.671 147.447 141.862 146.638C141.053 145.829 139.956 145.375 138.812 145.375C137.669 145.375 136.572 145.829 135.763 146.638C134.954 147.447 134.5 148.544 134.5 149.688V175.562C134.5 176.177 134.631 176.785 134.886 177.345C135.14 177.905 135.51 178.404 135.973 178.809L151.75 192.812L153.906 216.531" stroke="#D44C4C" stroke-width="2" stroke-linecap="round" stroke-linejoin="round"/>
<path d="M201.344 119.5H209.969" stroke="#D44C4C" stroke-width="2" stroke-linecap="round" stroke-linejoin="round"/>
<path d="M201.344 113.031L204.578 109.797" stroke="#D44C4C" stroke-width="2" stroke-linecap="round" stroke-linejoin="round"/>
<path d="M201.344 125.969L204.578 129.203" stroke="#D44C4C" stroke-width="2" stroke-linecap="round" stroke-linejoin="round"/>
<path d="M128.031 119.5H119.406" stroke="#D44C4C" stroke-width="2" stroke-linecap="round" stroke-linejoin="round"/>
<path d="M128.031 113.031L124.797 109.797" stroke="#D44C4C" stroke-width="2" stroke-linecap="round" stroke-linejoin="round"/>
<path d="M128.031 125.969L124.797 129.203" stroke="#D44C4C" stroke-width="2" stroke-linecap="round" stroke-linejoin="round"/>
<path d="M188.406 154H197.031" stroke="#D44C4C" stroke-width="2" stroke-linejoin="round"/>
<path d="M134.5 154H143.125" stroke="#D44C4C" stroke-width="2" stroke-linejoin="round"/>
<path d="M16.0056 178.697C12.8287 143.161 28.2227 103.871 53.4538 72.6175C78.6868 41.3615 113.545 18.4049 148.993 15.2358C184.645 12.0486 223.681 21.2984 254.579 40.2717C285.473 59.2421 308.074 87.8227 311.241 123.25C314.412 158.719 297.529 194.601 270.779 222.481C244.032 250.356 207.605 270.029 172.055 273.207C136.306 276.403 98.8008 270.478 69.488 254.877C40.2136 239.297 19.1722 214.118 16.0056 178.697Z" stroke="#D44C4C" stroke-width="3"/>
</svg>
