<svg width="325" height="288" viewBox="0 0 325 288" fill="none" xmlns="http://www.w3.org/2000/svg">
<path d="M216.906 123.812C213.663 127.055 211.074 128.125 206.125 128.125C196.228 128.125 188.875 120.772 188.875 110.875C188.875 105.926 189.945 103.337 193.188 100.094L180.25 87.1562L96.1562 171.25L109.094 184.188C112.337 180.945 114.926 179.875 119.875 179.875C129.772 179.875 137.125 187.228 137.125 197.125C137.125 202.074 136.055 204.663 132.812 207.906L145.75 220.844L229.844 136.75L216.906 123.812Z" stroke="#D44C4C" stroke-width="2" stroke-miterlimit="10"/>
<path d="M150.062 117.344L158.688 125.969" stroke="#D44C4C" stroke-width="2" stroke-miterlimit="10"/>
<path d="M191.031 158.312L199.656 166.938" stroke="#D44C4C" stroke-width="2" stroke-miterlimit="10"/>
<path d="M163 130.281L171.625 138.906" stroke="#D44C4C" stroke-width="2" stroke-miterlimit="10"/>
<path d="M178.094 145.375L186.719 154" stroke="#D44C4C" stroke-width="2" stroke-miterlimit="10"/>
<path d="M15.9407 178.697C12.7638 143.161 28.1578 103.871 53.3889 72.6175C78.6218 41.3615 113.48 18.4049 148.928 15.2358C184.58 12.0486 223.616 21.2984 254.514 40.2717C285.408 59.2421 308.009 87.8227 311.176 123.25C314.347 158.719 297.464 194.601 270.714 222.481C243.967 250.356 207.54 270.029 171.991 273.207C136.241 276.403 98.7358 270.478 69.4231 254.877C40.1486 239.297 19.1073 214.118 15.9407 178.697Z" stroke="#D44C4C" stroke-width="3"/>
</svg>
